<svg width="16" height="16" viewBox="0 0 16 16" fill="none" xmlns="http://www.w3.org/2000/svg">
<path d="M8.00012 9.9998C7.91239 10.0003 7.82541 9.98349 7.74419 9.95031C7.66296 9.91714 7.58908 9.86825 7.52679 9.80646L4.86012 7.1398C4.73459 7.01426 4.66406 6.844 4.66406 6.66646C4.66406 6.48893 4.73459 6.31867 4.86012 6.19313C4.98566 6.0676 5.15592 5.99707 5.33346 5.99707C5.51099 5.99707 5.68125 6.0676 5.80679 6.19313L8.00012 8.39313L10.1935 6.19313C10.319 6.0676 10.4893 5.99707 10.6668 5.99707C10.8443 5.99707 11.0146 6.0676 11.1401 6.19313C11.2657 6.31867 11.3362 6.48893 11.3362 6.66646C11.3362 6.844 11.2657 7.01426 11.1401 7.1398L8.47346 9.80646C8.41116 9.86825 8.33729 9.91714 8.25606 9.95031C8.17484 9.98349 8.08786 10.0003 8.00012 9.9998Z" fill="#0C5273"/>
</svg>
