<svg width="16" height="16" viewBox="0 0 16 16" fill="none" xmlns="http://www.w3.org/2000/svg">
<path d="M13.3336 12.667H12.0002V6.66695H12.6669C12.9746 6.66791 13.2731 6.56242 13.5119 6.36837C13.7507 6.17433 13.915 5.90368 13.977 5.60231C14.039 5.30093 13.9949 4.9874 13.8521 4.71485C13.7093 4.44231 13.4766 4.22754 13.1936 4.10695L8.52689 2.10695C8.35995 2.03764 8.18097 2.00195 8.00022 2.00195C7.81946 2.00195 7.64049 2.03764 7.47355 2.10695L2.80689 4.10695C2.52382 4.22754 2.29116 4.44231 2.14837 4.71485C2.00558 4.9874 1.96145 5.30093 2.02345 5.60231C2.08545 5.90368 2.24977 6.17433 2.48855 6.36837C2.72733 6.56242 3.02587 6.66791 3.33355 6.66695H4.00022V12.667H2.66689C2.49008 12.667 2.32051 12.7372 2.19548 12.8622C2.07046 12.9872 2.00022 13.1568 2.00022 13.3336C2.00022 13.5104 2.07046 13.68 2.19548 13.805C2.32051 13.93 2.49008 14.0003 2.66689 14.0003H13.3336C13.5104 14.0003 13.6799 13.93 13.805 13.805C13.93 13.68 14.0002 13.5104 14.0002 13.3336C14.0002 13.1568 13.93 12.9872 13.805 12.8622C13.6799 12.7372 13.5104 12.667 13.3336 12.667ZM10.6669 12.667H8.66689V6.66695H10.6669V12.667ZM5.33355 6.66695H7.33355V12.667H5.33355V6.66695Z" fill="#00B259"/>
</svg>