<svg width="32" height="32" viewBox="0 0 32 32" fill="none" xmlns="http://www.w3.org/2000/svg">
<rect width="32" height="32" rx="16" fill="#E5F7EE"/>
<path d="M24.0003 23.0004H22.0003V14.0004H23.0003C23.4619 14.0019 23.9097 13.8436 24.2678 13.5526C24.626 13.2615 24.8725 12.8555 24.9655 12.4035C25.0585 11.9514 24.9923 11.4811 24.7781 11.0723C24.5639 10.6635 24.2149 10.3413 23.7903 10.1604L16.7903 7.16043C16.5399 7.05645 16.2715 7.00293 16.0003 7.00293C15.7292 7.00293 15.4607 7.05645 15.2103 7.16043L8.21033 10.1604C7.78573 10.3413 7.43674 10.6635 7.22256 11.0723C7.00837 11.4811 6.94217 11.9514 7.03517 12.4035C7.12817 12.8555 7.37465 13.2615 7.73282 13.5526C8.091 13.8436 8.53881 14.0019 9.00033 14.0004H10.0003V23.0004H8.00033C7.73511 23.0004 7.48076 23.1058 7.29322 23.2933C7.10569 23.4809 7.00033 23.7352 7.00033 24.0004C7.00033 24.2656 7.10569 24.52 7.29322 24.7075C7.48076 24.8951 7.73511 25.0004 8.00033 25.0004H24.0003C24.2655 25.0004 24.5199 24.8951 24.7074 24.7075C24.895 24.52 25.0003 24.2656 25.0003 24.0004C25.0003 23.7352 24.895 23.4809 24.7074 23.2933C24.5199 23.1058 24.2655 23.0004 24.0003 23.0004ZM20.0003 23.0004H17.0003V14.0004H20.0003V23.0004ZM12.0003 14.0004H15.0003V23.0004H12.0003V14.0004Z" fill="#00B259"/>
</svg>