<svg width="16" height="16" viewBox="0 0 16 16" fill="none" xmlns="http://www.w3.org/2000/svg">
<circle cx="7.99967" cy="7.99992" r="6.66667" fill="white"/>
<path d="M7.99968 1.33325C6.68114 1.33325 5.3922 1.72425 4.29588 2.45679C3.19955 3.18933 2.34506 4.23052 1.84048 5.4487C1.3359 6.66687 1.20387 8.00731 1.46111 9.30052C1.71834 10.5937 2.35328 11.7816 3.28563 12.714C4.21798 13.6463 5.40587 14.2813 6.69908 14.5385C7.99228 14.7957 9.33273 14.6637 10.5509 14.1591C11.7691 13.6545 12.8103 12.8 13.5428 11.7037C14.2754 10.6074 14.6663 9.31846 14.6663 7.99992C14.6663 7.12444 14.4939 6.25753 14.1589 5.4487C13.8238 4.63986 13.3328 3.90493 12.7137 3.28587C12.0947 2.66682 11.3597 2.17575 10.5509 1.84072C9.74206 1.50569 8.87516 1.33325 7.99968 1.33325ZM11.473 6.47325L7.47301 10.4733C7.41104 10.5357 7.3373 10.5853 7.25606 10.6192C7.17482 10.653 7.08769 10.6705 6.99968 10.6705C6.91167 10.6705 6.82453 10.653 6.74329 10.6192C6.66205 10.5853 6.58832 10.5357 6.52634 10.4733L4.52634 8.47325C4.46418 8.41109 4.41488 8.3373 4.38124 8.25609C4.3476 8.17487 4.33028 8.08782 4.33028 7.99992C4.33028 7.82238 4.40081 7.65212 4.52634 7.52659C4.65188 7.40105 4.82214 7.33052 4.99968 7.33052C5.17721 7.33052 5.34748 7.40105 5.47301 7.52659L6.99968 9.05992L10.5263 5.52659C10.6519 5.40105 10.8221 5.33052 10.9997 5.33052C11.1772 5.33052 11.3475 5.40105 11.473 5.52659C11.5985 5.65212 11.6691 5.82238 11.6691 5.99992C11.6691 6.17745 11.5985 6.34772 11.473 6.47325Z" fill="#25AB21"/>
</svg>
