<svg width="16" height="16" viewBox="0 0 16 16" fill="none" xmlns="http://www.w3.org/2000/svg">
<path d="M7.99984 1.33346C6.62158 1.30119 5.28665 1.81617 4.28713 2.7657C3.28762 3.71524 2.70491 5.02202 2.6665 6.40013C2.6665 9.78679 6.6065 13.8268 7.05984 14.2735C7.30965 14.5218 7.64759 14.6612 7.99984 14.6612C8.35208 14.6612 8.69002 14.5218 8.93984 14.2735C9.39317 13.8268 13.3332 9.78679 13.3332 6.40013C13.2948 5.02202 12.7121 3.71524 11.7125 2.7657C10.713 1.81617 9.3781 1.30119 7.99984 1.33346V1.33346ZM7.99984 8.66679C7.60427 8.66679 7.21759 8.5495 6.8887 8.32973C6.5598 8.10997 6.30345 7.79761 6.15208 7.43216C6.0007 7.06671 5.9611 6.66458 6.03827 6.27661C6.11544 5.88865 6.30592 5.53229 6.58562 5.25258C6.86533 4.97288 7.22169 4.78239 7.60966 4.70522C7.99762 4.62805 8.39975 4.66766 8.7652 4.81904C9.13066 4.97041 9.44301 5.22676 9.66278 5.55565C9.88254 5.88455 9.99984 6.27123 9.99984 6.66679C9.99984 7.19723 9.78912 7.70594 9.41405 8.08101C9.03898 8.45608 8.53027 8.66679 7.99984 8.66679Z" fill="black" fill-opacity="0.65"/>
</svg>
