<svg width="24" height="24" viewBox="0 0 24 24" fill="none" xmlns="http://www.w3.org/2000/svg">
<path d="M5.58941 12.1802L13.2894 2.56024C13.5099 2.28796 13.8199 2.10275 14.1641 2.03756C14.5084 1.97237 14.8646 2.03143 15.1694 2.20423C15.4742 2.37703 15.7078 2.65237 15.8287 2.98124C15.9495 3.31011 15.9498 3.6712 15.8294 4.00024L13.8294 9.48024H16.4994C16.8701 9.49109 17.2304 9.60479 17.5402 9.80862C17.85 10.0125 18.097 10.2984 18.2537 10.6345C18.4103 10.9707 18.4704 11.3437 18.4273 11.712C18.3842 12.0803 18.2395 12.4294 18.0094 12.7202L10.6394 21.4702C10.4083 21.7116 10.1022 21.8676 9.77113 21.9129C9.44002 21.9583 9.10332 21.8902 8.81584 21.7198C8.52836 21.5494 8.307 21.2867 8.18781 20.9745C8.06863 20.6622 8.05861 20.3189 8.15941 20.0002L9.92941 15.4002H7.12941C6.75966 15.392 6.39943 15.2814 6.08876 15.0808C5.77808 14.8801 5.52913 14.5973 5.36956 14.2636C5.20999 13.93 5.14606 13.5586 5.18487 13.1909C5.22368 12.8231 5.36371 12.4732 5.58941 12.1802Z" fill="#10D974"/>
</svg>