<svg width="16" height="16" viewBox="0 0 16 16" fill="none" xmlns="http://www.w3.org/2000/svg">
<path d="M5.99988 13.3335C5.91214 13.334 5.82517 13.3171 5.74394 13.284C5.66272 13.2508 5.58884 13.2019 5.52654 13.1401C5.46406 13.0781 5.41446 13.0044 5.38062 12.9232C5.34677 12.8419 5.32935 12.7548 5.32935 12.6668C5.32935 12.5788 5.34677 12.4916 5.38062 12.4104C5.41446 12.3292 5.46406 12.2554 5.52654 12.1935L9.72654 8.00012L5.52654 3.80679C5.40101 3.68125 5.33048 3.51099 5.33048 3.33346C5.33048 3.15592 5.40101 2.98566 5.52654 2.86012C5.65208 2.73459 5.82234 2.66406 5.99988 2.66406C6.17741 2.66406 6.34768 2.73459 6.47321 2.86012L11.1399 7.52679C11.2024 7.58877 11.252 7.6625 11.2858 7.74374C11.3197 7.82498 11.3371 7.91212 11.3371 8.00012C11.3371 8.08813 11.3197 8.17527 11.2858 8.25651C11.252 8.33775 11.2024 8.41148 11.1399 8.47346L6.47321 13.1401C6.41092 13.2019 6.33704 13.2508 6.25582 13.284C6.17459 13.3171 6.08762 13.334 5.99988 13.3335Z" fill="#0C5273"/>
</svg>
