<svg width="24" height="24" viewBox="0 0 24 24" fill="none" xmlns="http://www.w3.org/2000/svg">
<path d="M18 14.9996C17.599 14.9999 17.2021 15.0806 16.8328 15.2369C16.4635 15.3932 16.1294 15.6219 15.85 15.9096L7.99999 12.2696C8.00489 12.1797 8.00489 12.0896 7.99999 11.9996C8.00489 11.9097 8.00489 11.8196 7.99999 11.7296L15.88 8.08962C16.372 8.58098 17.0195 8.88615 17.7117 8.95293C18.4039 9.01972 19.0977 8.84398 19.6747 8.45576C20.2516 8.06753 20.6757 7.49095 20.8746 6.8246C21.0734 6.15825 21.0346 5.44352 20.7647 4.80263C20.4949 4.16174 20.0108 3.6345 19.3952 3.31106C18.7796 2.98762 18.0708 2.88808 17.3899 3.02945C16.709 3.17083 16.0984 3.54434 15.6625 4.08611C15.2266 4.62789 14.9924 5.30428 15 5.99962C14.9951 6.08955 14.9951 6.17969 15 6.26962L7.14999 9.90962C6.73402 9.48127 6.19968 9.18679 5.61538 9.06388C5.03108 8.94096 4.42339 8.9952 3.8701 9.21964C3.3168 9.44409 2.84306 9.82854 2.50952 10.3238C2.17598 10.819 1.9978 11.4025 1.9978 11.9996C1.9978 12.5967 2.17598 13.1802 2.50952 13.6755C2.84306 14.1707 3.3168 14.5552 3.8701 14.7796C4.42339 15.004 5.03108 15.0583 5.61538 14.9354C6.19968 14.8124 6.73402 14.518 7.14999 14.0896L15 17.7296C14.9951 17.8196 14.9951 17.9097 15 17.9996C15 18.593 15.1759 19.173 15.5056 19.6663C15.8352 20.1597 16.3038 20.5442 16.8519 20.7713C17.4001 20.9983 18.0033 21.0577 18.5853 20.942C19.1672 20.8262 19.7018 20.5405 20.1213 20.1209C20.5409 19.7014 20.8266 19.1668 20.9423 18.5849C21.0581 18.0029 20.9987 17.3997 20.7716 16.8516C20.5446 16.3034 20.16 15.8349 19.6667 15.5052C19.1734 15.1756 18.5933 14.9996 18 14.9996Z" fill="black" fill-opacity="0.65"/>
</svg>