<svg width="25" height="24" viewBox="0 0 25 24" fill="none" xmlns="http://www.w3.org/2000/svg">
<path d="M22.3998 9.48015C22.2839 9.12928 22.073 8.81739 21.7906 8.57909C21.5082 8.34079 21.1652 8.1854 20.7998 8.13015L16.3298 7.45015L14.3298 3.15015C14.1683 2.80656 13.9124 2.51604 13.5918 2.31254C13.2713 2.10904 12.8995 2.00098 12.5198 2.00098C12.1402 2.00098 11.7684 2.10904 11.4478 2.31254C11.1273 2.51604 10.8714 2.80656 10.7098 3.15015L8.70984 7.45015L4.19984 8.13015C3.83447 8.1854 3.49154 8.34079 3.20911 8.57909C2.92668 8.81739 2.71579 9.12928 2.59984 9.48015C2.48996 9.82486 2.47564 10.1929 2.55841 10.5451C2.64118 10.8973 2.81793 11.2205 3.06984 11.4802L6.35984 14.8602L5.57984 19.6502C5.52057 20.0193 5.56599 20.3978 5.71093 20.7424C5.85588 21.0871 6.09454 21.3843 6.39984 21.6002C6.73505 21.8517 7.14082 21.9917 7.55984 22.0002C7.90962 22.0085 8.25515 21.9221 8.55984 21.7502L12.5598 19.5502L16.5598 21.7502C16.8645 21.9221 17.2101 22.0085 17.5598 22.0002C17.9756 22.0004 18.381 21.871 18.7198 21.6302C19.0251 21.4143 19.2638 21.1171 19.4088 20.7724C19.5537 20.4278 19.5991 20.0493 19.5398 19.6802L18.7598 14.8902L22.0498 11.5102C22.2869 11.2354 22.4446 10.9013 22.5063 10.5437C22.568 10.1861 22.5312 9.81844 22.3998 9.48015Z" fill="#0C5273"/>
</svg>